<?xml version="1.0" encoding="UTF-8"?> <svg xmlns="http://www.w3.org/2000/svg" width="300" height="300" viewBox="0 0 300 300" fill="none"> <path d="M223.222 75.5476C223.222 34.8758 190.282 1.90469 149.647 1.90469C109.013 1.90469 76.0717 34.8758 76.0717 75.5476V143.22C76.0717 183.891 109.013 216.862 149.647 216.862C190.282 216.862 223.222 183.891 223.222 143.22V75.5476Z" stroke="#C3C5B6" stroke-width="3"></path> <path d="M107.129 124.125H105.719V48.1303H109.407L154.528 118.372V48.1303H155.938V124.125H148.02L107.129 61.158V124.125Z" fill="#C3C5B6"></path> <path d="M178.499 180.036H169.496V105.127H150.732V104.041H197.372V105.127H178.499V180.036Z" fill="#C3C5B6"></path> <path d="M59.8201 260.193H59.3501V234.861H60.5794L75.6198 258.275V234.861H76.0898V260.193H73.4505L59.8201 239.204V260.193ZM84.5781 235.223V234.861H91.0137V235.223H89.2421V259.831H91.0137V260.193H84.5781V259.831H86.2412V235.223H84.5781ZM102.705 234.861V250.856L114.383 234.861L114.672 235.115L108.2 243.945L117.818 260.193H114.455L106.356 246.478L102.705 251.508V260.193H99.7039V234.861H102.705ZM124.021 260.193H123.587L134.398 234.861L134.795 234.68L143.906 260.193H140.833L138.013 252.232H127.456L124.021 260.193ZM133.277 238.77L127.601 251.87H137.905L133.277 238.77ZM173.369 260.193H170.368V235.223H164.113V234.861H179.66V235.223H173.369V260.193ZM186.899 235.223V234.861H193.335V235.223H191.563V259.831H193.335V260.193H186.899V259.831H188.562V235.223H186.899ZM202.314 260.193H201.844V234.861H203.074L218.114 258.275V234.861H218.584V260.193H215.945L202.314 239.204V260.193ZM234.882 260.193H231.881V235.223H225.626V234.861H241.173V235.223H234.882V260.193Z" fill="#C3C5B6"></path> <path d="M111.406 276.478C112.375 276.478 113.134 276.709 113.684 277.172C114.233 277.636 114.508 278.273 114.508 279.083C114.508 279.894 114.233 280.531 113.684 280.994C113.134 281.45 112.375 281.678 111.406 281.678H109.367V284.077H108.564V276.478H111.406ZM111.384 280.972C112.136 280.972 112.711 280.809 113.109 280.484C113.507 280.151 113.705 279.684 113.705 279.083C113.705 278.468 113.507 277.998 113.109 277.672C112.711 277.339 112.136 277.172 111.384 277.172H109.367V280.972H111.384ZM122.697 283.382V284.077H117.328V276.478H122.535V277.172H118.131V279.876H122.057V280.56H118.131V283.382H122.697ZM130.853 284.077L129.118 281.634C128.923 281.656 128.72 281.667 128.511 281.667H126.471V284.077H125.669V276.478H128.511C129.479 276.478 130.239 276.709 130.788 277.172C131.338 277.636 131.613 278.273 131.613 279.083C131.613 279.677 131.461 280.18 131.157 280.592C130.861 280.998 130.434 281.291 129.877 281.472L131.732 284.077H130.853ZM128.489 280.983C129.241 280.983 129.816 280.817 130.213 280.484C130.611 280.151 130.81 279.684 130.81 279.083C130.81 278.468 130.611 277.998 130.213 277.672C129.816 277.339 129.241 277.172 128.489 277.172H126.471V280.983H128.489ZM142.477 276.478V284.077H141.707V277.998L138.724 283.111H138.344L135.362 278.03V284.077H134.592V276.478H135.253L138.551 282.112L141.815 276.478H142.477ZM150.797 282.047H146.567L145.656 284.077H144.821L148.292 276.478H149.083L152.554 284.077H151.708L150.797 282.047ZM150.504 281.396L148.682 277.314L146.86 281.396H150.504ZM161.24 276.478V284.077H160.578L155.697 277.911V284.077H154.895V276.478H155.556L160.448 282.644V276.478H161.24ZM170.172 283.382V284.077H164.803V276.478H170.009V277.172H165.606V279.876H169.532V280.56H165.606V283.382H170.172ZM179.488 276.478V284.077H178.827L173.946 277.911V284.077H173.143V276.478H173.805L178.697 282.644V276.478H179.488ZM184.526 277.172H181.858V276.478H187.997V277.172H185.329V284.077H184.526V277.172ZM129.357 289.686V297.286H128.587V291.206L125.605 296.32H125.225L122.242 291.239V297.286H121.472V289.686H122.134L125.431 295.321L128.696 289.686H129.357ZM137.677 295.256H133.447L132.536 297.286H131.701L135.172 289.686H135.964L139.435 297.286H138.589L137.677 295.256ZM137.385 294.604L135.562 290.522L133.74 294.604H137.385ZM144.129 293.714L142.578 295.288V297.286H141.775V289.686H142.578V294.279L147.036 289.686H147.958L144.671 293.128L148.186 297.286H147.231L144.129 293.714ZM155.94 296.591V297.286H150.571V289.686H155.777V290.381H151.374V293.084H155.3V293.768H151.374V296.591H155.94ZM165.893 297.351C164.91 297.351 164.144 297.069 163.594 296.504C163.044 295.94 162.77 295.118 162.77 294.04V289.686H163.572V294.007C163.572 294.89 163.771 295.549 164.169 295.983C164.567 296.417 165.141 296.634 165.893 296.634C166.653 296.634 167.231 296.417 167.629 295.983C168.027 295.549 168.225 294.89 168.225 294.007V289.686H169.006V294.04C169.006 295.118 168.732 295.94 168.182 296.504C167.64 297.069 166.877 297.351 165.893 297.351ZM175.352 289.686C176.321 289.686 177.08 289.918 177.629 290.381C178.179 290.844 178.454 291.481 178.454 292.292C178.454 293.103 178.179 293.739 177.629 294.203C177.08 294.659 176.321 294.887 175.352 294.887H173.312V297.286H172.51V289.686H175.352ZM175.33 294.181C176.082 294.181 176.657 294.018 177.055 293.692C177.452 293.359 177.651 292.893 177.651 292.292C177.651 291.677 177.452 291.206 177.055 290.881C176.657 290.548 176.082 290.381 175.33 290.381H173.312V294.181H175.33Z" fill="#C3C5B6"></path> </svg> 